<svg width="24" height="24" viewBox="0 0 24 24" fill="none" xmlns="http://www.w3.org/2000/svg">
<path d="M12 1.25C17.93 1.25 22.75 6.07 22.75 12C22.75 17.93 17.93 22.75 12 22.75C6.07 22.75 1.25 17.93 1.25 12C1.25 6.07 6.07 1.25 12 1.25ZM12 21.25C17.1 21.25 21.25 17.1 21.25 12C21.25 6.9 17.1 2.75 12 2.75C6.9 2.75 2.75 6.9 2.75 12C2.75 17.1 6.9 21.25 12 21.25Z" fill="#FF445F"/>
<path d="M9.5 11.25L15.5 11.25C15.91 11.25 16.25 11.59 16.25 12C16.25 12.41 15.91 12.75 15.5 12.75L9.5 12.75C9.09 12.75 8.75 12.41 8.75 12C8.75 11.59 9.09 11.25 9.5 11.25Z" fill="#FF445F"/>
<path d="M11.5001 8.25006C11.6901 8.25006 11.8801 8.32006 12.0301 8.47006C12.3201 8.76006 12.3201 9.24006 12.0301 9.53006L9.56006 12.0001L12.0301 14.4701C12.3201 14.7601 12.3201 15.2401 12.0301 15.5301C11.7401 15.8201 11.2601 15.8201 10.9701 15.5301L7.97006 12.5301C7.68006 12.2401 7.68006 11.7601 7.97006 11.4701L10.9701 8.47006C11.1201 8.32006 11.3101 8.25006 11.5001 8.25006Z" fill="#FF445F"/>
</svg>
