<svg width="82" height="82" viewBox="0 0 82 82" fill="none" xmlns="http://www.w3.org/2000/svg">
<path d="M58.0796 7.91846H50.1772C38.7888 7.91846 28.4341 12.401 20.761 19.6846L22.8637 26.2725L30.1342 22.5809L58.0796 7.91846ZM58.0796 7.91846V30.5005H52.1934C40.7526 30.5005 31.4453 39.8077 31.4453 51.2485V58.832H7.40576V50.6895C7.40576 39.5079 11.7268 29.3224 18.7779 21.6934L20.9288 28.4325L20.9289 28.4326C21.0405 28.7815 21.2992 29.0641 21.6373 29.2057L21.6382 29.2061C21.9756 29.3459 22.3583 29.3336 22.6857 29.1666L22.6855 29.1668L22.5723 28.9438L22.6859 29.1665L58.0796 7.91846ZM29.8377 25.535L31.3183 32.0282L31.3183 32.0283C31.4507 32.6082 31.9659 33.0011 32.5364 33.0005M29.8377 25.535L30.1344 22.5808C30.4781 22.406 30.8832 22.3988 31.2317 22.5642C31.5807 22.7276 31.8332 23.043 31.919 23.4173L31.919 23.4176L33.756 31.4727L33.756 31.4728C33.9092 32.1455 33.488 32.8155 32.815 32.9693M29.8377 25.535L30.0676 25.4183L31.562 31.9727L29.8377 25.535ZM29.8377 25.535L29.7804 25.2837L29.8377 25.535ZM32.5364 33.0005C32.5363 33.0005 32.5362 33.0005 32.5361 33.0005V32.7505L32.5364 33.0005ZM32.5364 33.0005C32.6278 33.0005 32.7211 32.9908 32.815 32.9693M32.815 32.9693C32.815 32.9693 32.815 32.9693 32.815 32.9693L32.7593 32.7256L32.815 32.9693ZM80 7.91846C80.6903 7.91846 81.25 7.35877 81.25 6.66846C81.25 5.97814 80.6903 5.41846 80 5.41846H71.708V5C71.708 2.65636 69.8016 0.75 67.458 0.75H62.3296C59.986 0.75 58.0796 2.65636 58.0796 5V5.41846H50.1772C25.2145 5.41846 4.90576 25.7267 4.90576 50.6895V58.8331C2.60547 58.8833 0.75 60.7699 0.75 63.082V68.2104C0.75 70.5226 2.60547 72.4091 4.90576 72.4594V80C4.90576 80.6903 5.46544 81.25 6.15576 81.25C6.84608 81.25 7.40576 80.6903 7.40576 80V72.4604H31.4453V80C31.4453 80.6903 32.005 81.25 32.6953 81.25C33.3856 81.25 33.9453 80.6903 33.9453 80V72.4502C36.1639 72.311 37.9268 70.4639 37.9268 68.2104V63.082C37.9268 60.8286 36.1639 58.9815 33.9453 58.8423V51.2485C33.9453 41.1869 42.1317 33.0005 52.1934 33.0005H58.0796V33.6768C58.0796 36.0204 59.986 37.9268 62.3296 37.9268H67.458C69.8016 37.9268 71.708 36.0204 71.708 33.6768V33.0005H80C80.6903 33.0005 81.25 32.4408 81.25 31.7505C81.25 31.0602 80.6903 30.5005 80 30.5005H71.708V7.91846H80ZM35.4268 63.082V68.2104C35.4268 69.1754 34.6417 69.9604 33.6768 69.9604H5C4.03504 69.9604 3.25 69.1754 3.25 68.2104V63.082C3.25 62.1171 4.03504 61.332 5 61.332H33.6768C34.6417 61.332 35.4268 62.1171 35.4268 63.082ZM69.208 33.6768C69.208 34.6417 68.423 35.4268 67.458 35.4268H62.3296C61.3646 35.4268 60.5796 34.6417 60.5796 33.6768V5C60.5796 4.03504 61.3646 3.25 62.3296 3.25H67.458C68.423 3.25 69.208 4.03504 69.208 5V33.6768Z" fill="#FF445F" stroke="#FF445F" stroke-width="0.5"/>
</svg>
